<mxfile modified="2024-08-04T15:46:02.682Z" host="app.diagrams.net" agent="Mozilla/5.0 (Windows NT 10.0; Win64; x64; rv:128.0) Gecko/20100101 Firefox/128.0" etag="9aKqkmGW4LxW8q0Zqeu-" version="24.6.4" type="device">
  <diagram id="WI9T0HZ2pTsCkuznbFz-" name="Page-1">
    <mxGraphModel dx="1434" dy="774" grid="1" gridSize="10" guides="1" tooltips="1" connect="1" arrows="1" fold="1" page="1" pageScale="1" pageWidth="1169" pageHeight="827" background="#7AE9FF" math="0" shadow="0">
      <root>
        <mxCell id="0" />
        <mxCell id="1" parent="0" />
        <mxCell id="Ejz-sRmlC1lgcI7sac6K-17" value="" style="rounded=0;whiteSpace=wrap;html=1;" parent="1" vertex="1">
          <mxGeometry x="340" y="49" width="770" height="710" as="geometry" />
        </mxCell>
        <mxCell id="Ejz-sRmlC1lgcI7sac6K-29" value="" style="rounded=0;whiteSpace=wrap;html=1;" parent="1" vertex="1">
          <mxGeometry x="490" y="180" width="240" height="320" as="geometry" />
        </mxCell>
        <mxCell id="RLjyjs_sm2IHfBNOWAbh-23" value="Oracle Autonomous Database" style="aspect=fixed;html=1;perimeter=none;align=center;shadow=0;dashed=0;image;fontSize=12;image=img/lib/mscae/SQL_Database_generic.svg;labelBackgroundColor=#ffffff;fillColor=#4D9900;spacingTop=6;" parent="1" vertex="1">
          <mxGeometry x="929.9999999999998" y="655" width="37.5" height="50" as="geometry" />
        </mxCell>
        <mxCell id="Ejz-sRmlC1lgcI7sac6K-7" value="" style="shape=actor;whiteSpace=wrap;html=1;" parent="1" vertex="1">
          <mxGeometry x="60" y="180" width="40" height="60" as="geometry" />
        </mxCell>
        <UserObject label="User" placeholders="1" name="Variable" id="Ejz-sRmlC1lgcI7sac6K-9">
          <mxCell style="text;html=1;strokeColor=none;fillColor=none;align=center;verticalAlign=middle;whiteSpace=wrap;overflow=hidden;" parent="1" vertex="1">
            <mxGeometry x="40" y="248.5" width="80" height="20" as="geometry" />
          </mxCell>
        </UserObject>
        <mxCell id="Ejz-sRmlC1lgcI7sac6K-10" value="" style="image;sketch=0;aspect=fixed;html=1;points=[];align=center;fontSize=12;image=img/lib/mscae/Load_Balancer_feature.svg;" parent="1" vertex="1">
          <mxGeometry x="385" y="198.5" width="50" height="50" as="geometry" />
        </mxCell>
        <mxCell id="Ejz-sRmlC1lgcI7sac6K-11" value="Oracle Load Balancer" style="text;html=1;align=center;verticalAlign=middle;whiteSpace=wrap;rounded=0;" parent="1" vertex="1">
          <mxGeometry x="385" y="255" width="60" height="50" as="geometry" />
        </mxCell>
        <mxCell id="Ejz-sRmlC1lgcI7sac6K-18" value="Oracle Cloud Infrastructure (OCI)" style="text;html=1;align=center;verticalAlign=middle;whiteSpace=wrap;rounded=0;" parent="1" vertex="1">
          <mxGeometry x="370" y="70" width="210" height="30" as="geometry" />
        </mxCell>
        <mxCell id="Ejz-sRmlC1lgcI7sac6K-19" value="Oracle Kubernetes Engine (OKE)" style="image;sketch=0;aspect=fixed;html=1;points=[];align=center;fontSize=12;image=img/lib/mscae/Kubernetes_Services.svg;" parent="1" vertex="1">
          <mxGeometry x="610" y="100" width="50" height="37" as="geometry" />
        </mxCell>
        <mxCell id="Ejz-sRmlC1lgcI7sac6K-20" value="" style="image;sketch=0;aspect=fixed;html=1;points=[];align=center;fontSize=12;image=img/lib/mscae/Docker.svg;" parent="1" vertex="1">
          <mxGeometry x="160" y="700" width="50" height="40" as="geometry" />
        </mxCell>
        <mxCell id="Ejz-sRmlC1lgcI7sac6K-30" value="" style="rounded=0;whiteSpace=wrap;html=1;" parent="1" vertex="1">
          <mxGeometry x="500" y="193.5" width="220" height="146.5" as="geometry" />
        </mxCell>
        <mxCell id="Ejz-sRmlC1lgcI7sac6K-31" value="React Front-end" style="text;html=1;align=center;verticalAlign=middle;whiteSpace=wrap;rounded=0;" parent="1" vertex="1">
          <mxGeometry x="510" y="198.5" width="60" height="30" as="geometry" />
        </mxCell>
        <mxCell id="Ejz-sRmlC1lgcI7sac6K-32" value="Nginx" style="rounded=0;whiteSpace=wrap;html=1;" parent="1" vertex="1">
          <mxGeometry x="540" y="240" width="120" height="60" as="geometry" />
        </mxCell>
        <mxCell id="Ejz-sRmlC1lgcI7sac6K-33" value="" style="image;sketch=0;aspect=fixed;html=1;points=[];align=center;fontSize=12;image=img/lib/mscae/Kubernetes.svg;" parent="1" vertex="1">
          <mxGeometry x="575" y="380" width="50" height="48" as="geometry" />
        </mxCell>
        <mxCell id="Ejz-sRmlC1lgcI7sac6K-34" value="" style="rounded=0;whiteSpace=wrap;html=1;" parent="1" vertex="1">
          <mxGeometry x="740" y="180" width="330" height="320" as="geometry" />
        </mxCell>
        <mxCell id="Ejz-sRmlC1lgcI7sac6K-35" value="Spring Boot Backend Services" style="text;html=1;align=center;verticalAlign=middle;whiteSpace=wrap;rounded=0;" parent="1" vertex="1">
          <mxGeometry x="740" y="190" width="160" height="30" as="geometry" />
        </mxCell>
        <mxCell id="Ejz-sRmlC1lgcI7sac6K-36" value="" style="sketch=0;aspect=fixed;pointerEvents=1;shadow=0;dashed=0;html=1;strokeColor=none;labelPosition=center;verticalLabelPosition=bottom;verticalAlign=top;align=center;fillColor=#00188D;shape=mxgraph.mscae.enterprise.application_blank" parent="1" vertex="1">
          <mxGeometry x="758" y="245" width="50" height="43" as="geometry" />
        </mxCell>
        <mxCell id="Ejz-sRmlC1lgcI7sac6K-37" value="" style="endArrow=classic;startArrow=classic;html=1;rounded=0;entryX=0;entryY=0.5;entryDx=0;entryDy=0;entryPerimeter=0;" parent="1" target="Ejz-sRmlC1lgcI7sac6K-36" edge="1">
          <mxGeometry width="50" height="50" relative="1" as="geometry">
            <mxPoint x="663" y="267" as="sourcePoint" />
            <mxPoint x="610" y="370" as="targetPoint" />
          </mxGeometry>
        </mxCell>
        <mxCell id="Ejz-sRmlC1lgcI7sac6K-38" value="Namespace" style="text;html=1;align=center;verticalAlign=middle;whiteSpace=wrap;rounded=0;" parent="1" vertex="1">
          <mxGeometry x="744.5" y="288" width="77" height="30" as="geometry" />
        </mxCell>
        <mxCell id="Ejz-sRmlC1lgcI7sac6K-39" value="" style="sketch=0;aspect=fixed;pointerEvents=1;shadow=0;dashed=0;html=1;strokeColor=none;labelPosition=center;verticalLabelPosition=bottom;verticalAlign=top;align=center;fillColor=#00188D;shape=mxgraph.mscae.enterprise.application_blank" parent="1" vertex="1">
          <mxGeometry x="900" y="245" width="50" height="43" as="geometry" />
        </mxCell>
        <mxCell id="Ejz-sRmlC1lgcI7sac6K-40" value="" style="sketch=0;aspect=fixed;pointerEvents=1;shadow=0;dashed=0;html=1;strokeColor=none;labelPosition=center;verticalLabelPosition=bottom;verticalAlign=top;align=center;fillColor=#00188D;shape=mxgraph.mscae.enterprise.application_blank" parent="1" vertex="1">
          <mxGeometry x="900" y="350" width="50" height="43" as="geometry" />
        </mxCell>
        <mxCell id="Ejz-sRmlC1lgcI7sac6K-41" value="" style="endArrow=classic;html=1;rounded=0;entryX=0;entryY=0.5;entryDx=0;entryDy=0;entryPerimeter=0;exitX=1;exitY=0.5;exitDx=0;exitDy=0;exitPerimeter=0;" parent="1" source="Ejz-sRmlC1lgcI7sac6K-36" target="Ejz-sRmlC1lgcI7sac6K-39" edge="1">
          <mxGeometry width="50" height="50" relative="1" as="geometry">
            <mxPoint x="560" y="420" as="sourcePoint" />
            <mxPoint x="610" y="370" as="targetPoint" />
          </mxGeometry>
        </mxCell>
        <mxCell id="Ejz-sRmlC1lgcI7sac6K-43" value="" style="endArrow=classic;startArrow=classic;html=1;rounded=0;entryX=0.92;entryY=0.86;entryDx=0;entryDy=0;entryPerimeter=0;exitX=0.5;exitY=0;exitDx=0;exitDy=0;exitPerimeter=0;" parent="1" source="Ejz-sRmlC1lgcI7sac6K-40" target="Ejz-sRmlC1lgcI7sac6K-36" edge="1">
          <mxGeometry width="50" height="50" relative="1" as="geometry">
            <mxPoint x="860" y="350" as="sourcePoint" />
            <mxPoint x="910" y="300" as="targetPoint" />
          </mxGeometry>
        </mxCell>
        <mxCell id="Ejz-sRmlC1lgcI7sac6K-44" value="Pod Autoscaling" style="text;html=1;align=center;verticalAlign=middle;whiteSpace=wrap;rounded=0;" parent="1" vertex="1">
          <mxGeometry x="880" y="428" width="100" height="30" as="geometry" />
        </mxCell>
        <mxCell id="Ejz-sRmlC1lgcI7sac6K-45" value="Kubernetes Cluster" style="text;html=1;align=center;verticalAlign=middle;whiteSpace=wrap;rounded=0;" parent="1" vertex="1">
          <mxGeometry x="570" y="428" width="60" height="30" as="geometry" />
        </mxCell>
        <mxCell id="Ejz-sRmlC1lgcI7sac6K-46" value="" style="endArrow=none;dashed=1;html=1;dashPattern=1 3;strokeWidth=2;rounded=0;entryX=0.5;entryY=1;entryDx=0;entryDy=0;entryPerimeter=0;exitX=0.5;exitY=0;exitDx=0;exitDy=0;exitPerimeter=0;" parent="1" source="Ejz-sRmlC1lgcI7sac6K-40" target="Ejz-sRmlC1lgcI7sac6K-39" edge="1">
          <mxGeometry width="50" height="50" relative="1" as="geometry">
            <mxPoint x="880" y="350" as="sourcePoint" />
            <mxPoint x="930" y="300" as="targetPoint" />
          </mxGeometry>
        </mxCell>
        <mxCell id="Ejz-sRmlC1lgcI7sac6K-47" value="" style="endArrow=classic;startArrow=classic;html=1;rounded=0;entryX=0.5;entryY=1;entryDx=0;entryDy=0;" parent="1" source="Ejz-sRmlC1lgcI7sac6K-20" target="Ejz-sRmlC1lgcI7sac6K-45" edge="1">
          <mxGeometry width="50" height="50" relative="1" as="geometry">
            <mxPoint x="560" y="420" as="sourcePoint" />
            <mxPoint x="610" y="370" as="targetPoint" />
            <Array as="points">
              <mxPoint x="600" y="720" />
            </Array>
          </mxGeometry>
        </mxCell>
        <mxCell id="Ejz-sRmlC1lgcI7sac6K-61" style="edgeStyle=orthogonalEdgeStyle;rounded=0;orthogonalLoop=1;jettySize=auto;html=1;" parent="1" edge="1">
          <mxGeometry relative="1" as="geometry">
            <mxPoint x="215" y="360" as="targetPoint" />
            <mxPoint x="215" y="360" as="sourcePoint" />
          </mxGeometry>
        </mxCell>
        <mxCell id="Ejz-sRmlC1lgcI7sac6K-48" value="&lt;div&gt;Okta Identity Engine&lt;/div&gt;" style="shape=image;html=1;verticalAlign=top;verticalLabelPosition=bottom;labelBackgroundColor=#ffffff;imageAspect=0;aspect=fixed;image=https://cdn1.iconfinder.com/data/icons/unicons-line-vol-5/24/okta-128.png" parent="1" vertex="1">
          <mxGeometry x="170" y="280" width="60" height="60" as="geometry" />
        </mxCell>
        <mxCell id="Ejz-sRmlC1lgcI7sac6K-49" value="" style="endArrow=classic;startArrow=classic;html=1;rounded=0;exitX=1;exitY=0.75;exitDx=0;exitDy=0;entryX=0.1;entryY=0.53;entryDx=0;entryDy=0;entryPerimeter=0;" parent="1" source="Ejz-sRmlC1lgcI7sac6K-7" target="Ejz-sRmlC1lgcI7sac6K-10" edge="1">
          <mxGeometry width="50" height="50" relative="1" as="geometry">
            <mxPoint x="560" y="570" as="sourcePoint" />
            <mxPoint x="610" y="520" as="targetPoint" />
          </mxGeometry>
        </mxCell>
        <mxCell id="Ejz-sRmlC1lgcI7sac6K-52" value="" style="endArrow=classic;startArrow=classic;html=1;rounded=0;entryX=0.013;entryY=0.478;entryDx=0;entryDy=0;entryPerimeter=0;exitX=1.017;exitY=0.9;exitDx=0;exitDy=0;exitPerimeter=0;" parent="1" source="Ejz-sRmlC1lgcI7sac6K-48" target="Ejz-sRmlC1lgcI7sac6K-29" edge="1">
          <mxGeometry width="50" height="50" relative="1" as="geometry">
            <mxPoint x="210" y="520" as="sourcePoint" />
            <mxPoint x="260" y="470" as="targetPoint" />
          </mxGeometry>
        </mxCell>
        <mxCell id="Ejz-sRmlC1lgcI7sac6K-53" value="" style="endArrow=classic;startArrow=classic;html=1;rounded=0;entryX=-0.008;entryY=0.138;entryDx=0;entryDy=0;entryPerimeter=0;" parent="1" source="Ejz-sRmlC1lgcI7sac6K-10" target="Ejz-sRmlC1lgcI7sac6K-29" edge="1">
          <mxGeometry width="50" height="50" relative="1" as="geometry">
            <mxPoint x="430" y="230" as="sourcePoint" />
            <mxPoint x="490" y="230" as="targetPoint" />
            <Array as="points" />
          </mxGeometry>
        </mxCell>
        <mxCell id="Ejz-sRmlC1lgcI7sac6K-56" value="&lt;div&gt;Stripe Payments&lt;/div&gt;" style="shape=image;html=1;verticalAlign=top;verticalLabelPosition=bottom;labelBackgroundColor=#ffffff;imageAspect=0;aspect=fixed;image=https://cdn0.iconfinder.com/data/icons/phosphor-fill-vol-4/256/stripe-logo-fill-128.png" parent="1" vertex="1">
          <mxGeometry x="120" y="470" width="72" height="72" as="geometry" />
        </mxCell>
        <mxCell id="Ejz-sRmlC1lgcI7sac6K-59" value="" style="endArrow=classic;startArrow=classic;html=1;rounded=0;exitX=0.75;exitY=1;exitDx=0;exitDy=0;entryX=0.121;entryY=0.997;entryDx=0;entryDy=0;entryPerimeter=0;" parent="1" source="Ejz-sRmlC1lgcI7sac6K-48" target="Ejz-sRmlC1lgcI7sac6K-34" edge="1">
          <mxGeometry width="50" height="50" relative="1" as="geometry">
            <mxPoint x="240" y="360" as="sourcePoint" />
            <mxPoint x="890" y="500" as="targetPoint" />
            <Array as="points">
              <mxPoint x="215" y="390" />
              <mxPoint x="450" y="390" />
              <mxPoint x="450" y="550" />
              <mxPoint x="780" y="550" />
            </Array>
          </mxGeometry>
        </mxCell>
        <mxCell id="Ejz-sRmlC1lgcI7sac6K-62" value="JWT Tokens" style="text;html=1;align=center;verticalAlign=middle;whiteSpace=wrap;rounded=0;" parent="1" vertex="1">
          <mxGeometry x="250" y="393" width="90" height="30" as="geometry" />
        </mxCell>
        <mxCell id="Ejz-sRmlC1lgcI7sac6K-63" value="" style="endArrow=classic;startArrow=classic;html=1;rounded=0;exitX=1;exitY=0.5;exitDx=0;exitDy=0;entryX=-0.017;entryY=0.813;entryDx=0;entryDy=0;entryPerimeter=0;" parent="1" source="Ejz-sRmlC1lgcI7sac6K-56" target="Ejz-sRmlC1lgcI7sac6K-29" edge="1">
          <mxGeometry width="50" height="50" relative="1" as="geometry">
            <mxPoint x="232" y="520" as="sourcePoint" />
            <mxPoint x="282" y="470" as="targetPoint" />
            <Array as="points">
              <mxPoint x="330" y="506" />
              <mxPoint x="330" y="440" />
            </Array>
          </mxGeometry>
        </mxCell>
        <mxCell id="Ejz-sRmlC1lgcI7sac6K-64" value="" style="endArrow=classic;startArrow=classic;html=1;rounded=0;exitX=0.5;exitY=0;exitDx=0;exitDy=0;entryX=0.5;entryY=1;entryDx=0;entryDy=0;" parent="1" source="Ejz-sRmlC1lgcI7sac6K-56" target="Ejz-sRmlC1lgcI7sac6K-9" edge="1">
          <mxGeometry width="50" height="50" relative="1" as="geometry">
            <mxPoint x="90" y="458" as="sourcePoint" />
            <mxPoint x="90" y="280" as="targetPoint" />
            <Array as="points">
              <mxPoint x="156" y="400" />
              <mxPoint x="80" y="400" />
            </Array>
          </mxGeometry>
        </mxCell>
        <mxCell id="Ejz-sRmlC1lgcI7sac6K-65" value="Transaction Processing" style="text;html=1;align=center;verticalAlign=middle;whiteSpace=wrap;rounded=0;" parent="1" vertex="1">
          <mxGeometry x="878.75" y="730" width="140" height="30" as="geometry" />
        </mxCell>
        <mxCell id="JbMhbrjmmT8bgWCSaeku-2" value="" style="endArrow=classic;startArrow=classic;html=1;rounded=0;entryX=0.633;entryY=1;entryDx=0;entryDy=0;entryPerimeter=0;exitX=0.587;exitY=-0.1;exitDx=0;exitDy=0;exitPerimeter=0;" parent="1" source="RLjyjs_sm2IHfBNOWAbh-23" target="Ejz-sRmlC1lgcI7sac6K-34" edge="1">
          <mxGeometry width="50" height="50" relative="1" as="geometry">
            <mxPoint x="560" y="420" as="sourcePoint" />
            <mxPoint x="610" y="370" as="targetPoint" />
          </mxGeometry>
        </mxCell>
        <mxCell id="JbMhbrjmmT8bgWCSaeku-5" value="Redis Cache" style="outlineConnect=0;dashed=0;verticalLabelPosition=bottom;verticalAlign=top;align=center;html=1;shape=mxgraph.aws3.redis;fillColor=#2E73B8;gradientColor=none;" parent="1" vertex="1">
          <mxGeometry x="650" y="580" width="45" height="40" as="geometry" />
        </mxCell>
        <mxCell id="JbMhbrjmmT8bgWCSaeku-7" value="" style="endArrow=classic;startArrow=classic;html=1;rounded=0;exitX=1;exitY=0.53;exitDx=0;exitDy=0;exitPerimeter=0;entryX=0.303;entryY=1;entryDx=0;entryDy=0;entryPerimeter=0;" parent="1" source="JbMhbrjmmT8bgWCSaeku-5" target="Ejz-sRmlC1lgcI7sac6K-34" edge="1">
          <mxGeometry width="50" height="50" relative="1" as="geometry">
            <mxPoint x="750" y="600" as="sourcePoint" />
            <mxPoint x="800" y="550" as="targetPoint" />
            <Array as="points">
              <mxPoint x="842" y="601" />
            </Array>
          </mxGeometry>
        </mxCell>
        <mxCell id="JbMhbrjmmT8bgWCSaeku-10" value="" style="endArrow=classic;html=1;rounded=0;exitX=0.5;exitY=0;exitDx=0;exitDy=0;exitPerimeter=0;entryX=0.75;entryY=1;entryDx=0;entryDy=0;" parent="1" source="JbMhbrjmmT8bgWCSaeku-5" target="Ejz-sRmlC1lgcI7sac6K-29" edge="1">
          <mxGeometry width="50" height="50" relative="1" as="geometry">
            <mxPoint x="670" y="570" as="sourcePoint" />
            <mxPoint x="720" y="520" as="targetPoint" />
          </mxGeometry>
        </mxCell>
        <mxCell id="7TZFJ5ZDmVCkhhz28Itx-1" value="HashiCorp Vault" style="outlineConnect=0;dashed=0;verticalLabelPosition=bottom;verticalAlign=top;align=center;html=1;shape=mxgraph.aws3.vault;fillColor=#E05243;gradientColor=none;" vertex="1" parent="1">
          <mxGeometry x="1018.75" y="552" width="50" height="68" as="geometry" />
        </mxCell>
        <mxCell id="7TZFJ5ZDmVCkhhz28Itx-2" value="" style="endArrow=classic;startArrow=classic;html=1;rounded=0;exitX=0.5;exitY=0;exitDx=0;exitDy=0;exitPerimeter=0;entryX=0.915;entryY=1;entryDx=0;entryDy=0;entryPerimeter=0;" edge="1" parent="1" source="7TZFJ5ZDmVCkhhz28Itx-1" target="Ejz-sRmlC1lgcI7sac6K-34">
          <mxGeometry width="50" height="50" relative="1" as="geometry">
            <mxPoint x="980" y="570" as="sourcePoint" />
            <mxPoint x="1038" y="501" as="targetPoint" />
          </mxGeometry>
        </mxCell>
      </root>
    </mxGraphModel>
  </diagram>
</mxfile>
